# This file uses centimeters as units for non-parametric coordinates.

mtllib pinne.mtl
g default
v 0.586171 2.561359 -1.020324
v 0.534562 2.561359 -1.981351
v 0.451886 2.561359 -2.827229
v 0.342948 2.561359 -3.508799
v 0.214080 2.561359 -3.986451
v 0.072770 2.561359 -4.232423
v -0.072770 2.561359 -4.232423
v -0.214080 2.561359 -3.986451
v -0.342948 2.561359 -3.508799
v -0.451886 2.561359 -2.827229
v -0.534562 2.561359 -1.981351
v -0.586171 2.561359 -1.020324
v -0.603714 2.561359 -0.000000
v -0.586171 2.561359 1.020324
v -0.534562 2.561359 1.981351
v -0.451886 2.561359 2.827229
v -0.342948 2.561359 3.508798
v -0.214080 2.561359 3.986449
v -0.072770 2.561359 4.232421
v 0.072770 2.561359 4.232421
v 0.214080 2.561359 3.986449
v 0.342948 2.561359 3.508798
v 0.451886 2.561359 2.827228
v 0.534562 2.561359 1.981351
v 0.586171 2.561359 1.020324
v 0.603713 2.561359 0.000000
v 0.586171 3.010079 -1.020324
v 0.534562 3.010079 -1.981351
v 0.451886 3.010079 -2.827229
v 0.342948 3.010079 -3.508799
v 0.214080 3.010079 -3.986451
v 0.072770 3.010079 -4.232423
v -0.072770 3.010079 -4.232423
v -0.214080 3.010079 -3.986451
v -0.342948 3.010079 -3.508799
v -0.451886 3.010079 -2.827229
v -0.534562 3.010079 -1.981351
v -0.586171 3.010079 -1.020324
v -0.603714 3.010079 -0.000000
v -0.586171 3.010079 1.020324
v -0.534562 3.010079 1.981351
v -0.451886 3.010079 2.827229
v -0.342948 3.010079 3.508798
v -0.214080 3.010079 3.986449
v -0.072770 3.010079 4.232421
v 0.072770 3.010079 4.232421
v 0.214080 3.010079 3.986449
v 0.342948 3.010079 3.508798
v 0.451886 3.010079 2.827228
v 0.534562 3.010079 1.981351
v 0.586171 3.010079 1.020324
v 0.603713 3.010079 0.000000
v 0.000000 2.561359 0.000000
v 0.000000 3.010079 0.000000
vt 0.651710 0.118857
vt 0.638353 0.083637
vt 0.616955 0.052637
vt 0.588760 0.027659
vt 0.555407 0.010154
vt 0.518834 0.001139
vt 0.481166 0.001139
vt 0.444593 0.010154
vt 0.411240 0.027659
vt 0.383045 0.052637
vt 0.361647 0.083637
vt 0.348290 0.118857
vt 0.343750 0.156250
vt 0.348290 0.193643
vt 0.361647 0.228863
vt 0.383045 0.259863
vt 0.411240 0.284841
vt 0.444593 0.302346
vt 0.481166 0.311361
vt 0.518834 0.311361
vt 0.555407 0.302346
vt 0.588760 0.284841
vt 0.616955 0.259863
vt 0.638353 0.228863
vt 0.651710 0.193643
vt 0.656250 0.156250
vt 0.375000 0.312500
vt 0.384615 0.312500
vt 0.394231 0.312500
vt 0.403846 0.312500
vt 0.413462 0.312500
vt 0.423077 0.312500
vt 0.432692 0.312500
vt 0.442308 0.312500
vt 0.451923 0.312500
vt 0.461539 0.312500
vt 0.471154 0.312500
vt 0.480769 0.312500
vt 0.490385 0.312500
vt 0.500000 0.312500
vt 0.509615 0.312500
vt 0.519231 0.312500
vt 0.528846 0.312500
vt 0.538462 0.312500
vt 0.548077 0.312500
vt 0.557692 0.312500
vt 0.567308 0.312500
vt 0.576923 0.312500
vt 0.586538 0.312500
vt 0.596154 0.312500
vt 0.605769 0.312500
vt 0.615384 0.312500
vt 0.625000 0.312500
vt 0.375000 0.688440
vt 0.384615 0.688440
vt 0.394231 0.688440
vt 0.403846 0.688440
vt 0.413462 0.688440
vt 0.423077 0.688440
vt 0.432692 0.688440
vt 0.442308 0.688440
vt 0.451923 0.688440
vt 0.461539 0.688440
vt 0.471154 0.688440
vt 0.480769 0.688440
vt 0.490385 0.688440
vt 0.500000 0.688440
vt 0.509615 0.688440
vt 0.519231 0.688440
vt 0.528846 0.688440
vt 0.538462 0.688440
vt 0.548077 0.688440
vt 0.557692 0.688440
vt 0.567308 0.688440
vt 0.576923 0.688440
vt 0.586538 0.688440
vt 0.596154 0.688440
vt 0.605769 0.688440
vt 0.615384 0.688440
vt 0.625000 0.688440
vt 0.651710 0.806357
vt 0.638353 0.771137
vt 0.616955 0.740137
vt 0.588760 0.715159
vt 0.555407 0.697654
vt 0.518834 0.688639
vt 0.481166 0.688639
vt 0.444593 0.697654
vt 0.411240 0.715159
vt 0.383045 0.740137
vt 0.361647 0.771137
vt 0.348290 0.806357
vt 0.343750 0.843750
vt 0.348290 0.881143
vt 0.361647 0.916363
vt 0.383045 0.947363
vt 0.411240 0.972341
vt 0.444593 0.989846
vt 0.481166 0.998861
vt 0.518834 0.998861
vt 0.555407 0.989846
vt 0.588760 0.972341
vt 0.616955 0.947363
vt 0.638353 0.916363
vt 0.651710 0.881143
vt 0.656250 0.843750
vt 0.500000 0.150000
vt 0.500000 0.837500
vn 0.999392 0.000000 -0.034880
vn 0.997250 0.000000 -0.074113
vn 0.997250 0.000000 -0.074113
vn 0.999392 0.000000 -0.034880
vn 0.992223 0.000000 -0.124471
vn 0.992223 0.000000 -0.124471
vn 0.979600 0.000000 -0.200958
vn 0.979600 0.000000 -0.200958
vn 0.936831 0.000000 -0.349783
vn 0.936831 0.000000 -0.349783
vn 0.650946 0.000000 -0.759124
vn 0.650946 0.000000 -0.759124
vn -0.650946 0.000000 -0.759124
vn -0.650946 0.000000 -0.759124
vn -0.936831 0.000000 -0.349783
vn -0.936831 0.000000 -0.349783
vn -0.979600 0.000000 -0.200958
vn -0.979600 0.000000 -0.200958
vn -0.992223 0.000000 -0.124471
vn -0.992223 0.000000 -0.124471
vn -0.997250 0.000000 -0.074113
vn -0.997250 0.000000 -0.074113
vn -0.999392 0.000000 -0.034880
vn -0.999392 0.000000 -0.034880
vn -1.000000 0.000000 0.000000
vn -1.000000 0.000000 0.000000
vn -0.999392 0.000000 0.034880
vn -0.999392 0.000000 0.034880
vn -0.997250 0.000000 0.074113
vn -0.997250 0.000000 0.074113
vn -0.992223 0.000000 0.124471
vn -0.992223 0.000000 0.124471
vn -0.979600 0.000000 0.200958
vn -0.979600 0.000000 0.200958
vn -0.936831 0.000000 0.349784
vn -0.936831 0.000000 0.349784
vn -0.650947 0.000000 0.759124
vn -0.650947 0.000000 0.759124
vn 0.650947 0.000000 0.759124
vn 0.650947 0.000000 0.759124
vn 0.936831 0.000000 0.349784
vn 0.936831 0.000000 0.349784
vn 0.979600 0.000000 0.200958
vn 0.979600 0.000000 0.200958
vn 0.992223 0.000000 0.124471
vn 0.992223 0.000000 0.124471
vn 0.997250 0.000000 0.074113
vn 0.997250 0.000000 0.074113
vn 0.999392 0.000000 0.034880
vn 0.999392 0.000000 0.034880
vn 1.000000 0.000000 0.000000
vn 1.000000 0.000000 0.000000
vn 0.000000 -1.000000 0.000000
vn 0.000000 -1.000000 0.000000
vn 0.000000 -1.000000 -0.000000
vn 0.000000 -1.000000 0.000000
vn 0.000000 -1.000000 0.000000
vn 0.000000 -1.000000 0.000000
vn 0.000000 -1.000000 0.000000
vn 0.000000 -1.000000 0.000000
vn 0.000000 -1.000000 0.000000
vn 0.000000 -1.000000 0.000000
vn 0.000000 -1.000000 0.000000
vn 0.000000 -1.000000 0.000000
vn 0.000000 -1.000000 0.000000
vn 0.000000 -1.000000 0.000000
vn 0.000000 -1.000000 0.000000
vn 0.000000 -1.000000 0.000000
vn 0.000000 -1.000000 0.000000
vn 0.000000 -1.000000 0.000000
vn 0.000000 -1.000000 -0.000000
vn 0.000000 -1.000000 0.000000
vn 0.000000 -1.000000 0.000000
vn 0.000000 -1.000000 0.000000
vn 0.000000 -1.000000 0.000000
vn 0.000000 -1.000000 0.000000
vn 0.000000 -1.000000 -0.000000
vn 0.000000 -1.000000 -0.000000
vn 0.000000 -1.000000 0.000000
vn 0.000000 1.000000 -0.000000
vn 0.000000 1.000000 0.000000
vn 0.000000 1.000000 -0.000000
vn 0.000000 1.000000 0.000000
vn 0.000000 1.000000 0.000000
vn 0.000000 1.000000 0.000000
vn 0.000000 1.000000 -0.000000
vn 0.000000 1.000000 -0.000000
vn 0.000000 1.000000 -0.000000
vn 0.000000 1.000000 0.000000
vn 0.000000 1.000000 0.000000
vn 0.000000 1.000000 -0.000000
vn 0.000000 1.000000 0.000000
vn 0.000000 1.000000 0.000000
vn 0.000000 1.000000 0.000000
vn 0.000000 1.000000 0.000000
vn 0.000000 1.000000 0.000000
vn 0.000000 1.000000 0.000000
vn 0.000000 1.000000 0.000000
vn 0.000000 1.000000 0.000000
vn 0.000000 1.000000 0.000000
vn 0.000000 1.000000 -0.000000
vn 0.000000 1.000000 0.000000
vn 0.000000 1.000000 0.000000
vn 0.000000 1.000000 0.000000
vn 0.000000 1.000000 0.000000
vn 0.000000 1.000000 -0.000000
s 1
g pinne
usemtl initialShadingGroup
f 1/27/1 2/28/2 28/55/3 27/54/4
f 2/28/2 3/29/5 29/56/6 28/55/3
f 3/29/5 4/30/7 30/57/8 29/56/6
f 4/30/7 5/31/9 31/58/10 30/57/8
f 5/31/9 6/32/11 32/59/12 31/58/10
f 6/32/11 7/33/13 33/60/14 32/59/12
f 7/33/13 8/34/15 34/61/16 33/60/14
f 8/34/15 9/35/17 35/62/18 34/61/16
f 9/35/17 10/36/19 36/63/20 35/62/18
f 10/36/19 11/37/21 37/64/22 36/63/20
f 11/37/21 12/38/23 38/65/24 37/64/22
f 12/38/23 13/39/25 39/66/26 38/65/24
f 13/39/25 14/40/27 40/67/28 39/66/26
f 14/40/27 15/41/29 41/68/30 40/67/28
f 15/41/29 16/42/31 42/69/32 41/68/30
f 16/42/31 17/43/33 43/70/34 42/69/32
f 17/43/33 18/44/35 44/71/36 43/70/34
f 18/44/35 19/45/37 45/72/38 44/71/36
f 19/45/37 20/46/39 46/73/40 45/72/38
f 20/46/39 21/47/41 47/74/42 46/73/40
f 21/47/41 22/48/43 48/75/44 47/74/42
f 22/48/43 23/49/45 49/76/46 48/75/44
f 23/49/45 24/50/47 50/77/48 49/76/46
f 24/50/47 25/51/49 51/78/50 50/77/48
f 25/51/49 26/52/51 52/79/52 51/78/50
f 26/52/51 1/53/1 27/80/4 52/79/52
s 2
f 2/2/53 1/1/54 53/107/55
f 3/3/56 2/2/53 53/107/55
f 4/4/57 3/3/56 53/107/55
f 5/5/58 4/4/57 53/107/55
f 6/6/59 5/5/58 53/107/55
f 7/7/60 6/6/59 53/107/55
f 8/8/61 7/7/60 53/107/55
f 9/9/62 8/8/61 53/107/55
f 10/10/63 9/9/62 53/107/55
f 11/11/64 10/10/63 53/107/55
f 12/12/65 11/11/64 53/107/55
f 13/13/66 12/12/65 53/107/55
f 14/14/67 13/13/66 53/107/55
f 15/15/68 14/14/67 53/107/55
f 16/16/69 15/15/68 53/107/55
f 17/17/70 16/16/69 53/107/55
f 18/18/71 17/17/70 53/107/55
f 19/19/72 18/18/71 53/107/55
f 20/20/73 19/19/72 53/107/55
f 21/21/74 20/20/73 53/107/55
f 22/22/75 21/21/74 53/107/55
f 23/23/76 22/22/75 53/107/55
f 24/24/77 23/23/76 53/107/55
f 25/25/78 24/24/77 53/107/55
f 26/26/79 25/25/78 53/107/55
f 1/1/54 26/26/79 53/107/55
s 3
f 27/105/80 28/104/81 54/108/82
f 28/104/81 29/103/83 54/108/82
f 29/103/83 30/102/84 54/108/82
f 30/102/84 31/101/85 54/108/82
f 31/101/85 32/100/86 54/108/82
f 32/100/86 33/99/87 54/108/82
f 33/99/87 34/98/88 54/108/82
f 34/98/88 35/97/89 54/108/82
f 35/97/89 36/96/90 54/108/82
f 36/96/90 37/95/91 54/108/82
f 37/95/91 38/94/92 54/108/82
f 38/94/92 39/93/93 54/108/82
f 39/93/93 40/92/94 54/108/82
f 40/92/94 41/91/95 54/108/82
f 41/91/95 42/90/96 54/108/82
f 42/90/96 43/89/97 54/108/82
f 43/89/97 44/88/98 54/108/82
f 44/88/98 45/87/99 54/108/82
f 45/87/99 46/86/100 54/108/82
f 46/86/100 47/85/101 54/108/82
f 47/85/101 48/84/102 54/108/82
f 48/84/102 49/83/103 54/108/82
f 49/83/103 50/82/104 54/108/82
f 50/82/104 51/81/105 54/108/82
f 51/81/105 52/106/106 54/108/82
f 52/106/106 27/105/80 54/108/82
